<svg width="32" height="32" viewBox="0 0 32 32" fill="none" xmlns="http://www.w3.org/2000/svg">
<rect width="32" height="32" rx="4" fill="white"/>
<path d="M5.72656 22.7266H9.58203C10.8398 22.7266 11.8125 22.4023 12.5 21.7539C13.1953 21.0977 13.543 20.1758 13.543 18.9883V13.9727C13.543 12.7852 13.1953 11.8672 12.5 11.2188C11.8125 10.5625 10.8398 10.2344 9.58203 10.2344H5.72656V7.96094H9.51172C10.8789 7.96094 12.0469 8.19922 13.0156 8.67578C13.9844 9.15234 14.7227 9.84766 15.2305 10.7617C15.7383 11.6758 15.9922 12.7773 15.9922 14.0664V18.8945C15.9922 20.1836 15.7383 21.2852 15.2305 22.1992C14.7227 23.1133 13.9805 23.8086 13.0039 24.2852C12.0352 24.7617 10.8672 25 9.5 25H5.72656V22.7266ZM4.10938 7.96094H6.5V25H4.10938V7.96094ZM21.9805 25.1758C21.0742 25.1758 20.2422 24.9922 19.4844 24.625C18.7266 24.2578 18.1094 23.7422 17.6328 23.0781L19.5898 21.6719C19.8086 22.0547 20.125 22.3516 20.5391 22.5625C20.9531 22.7734 21.4336 22.8789 21.9805 22.8789C22.9102 22.8789 23.6289 22.5898 24.1367 22.0117C24.6523 21.4336 24.9102 20.6211 24.9102 19.5742V7.96094H27.3008V19.5859C27.3008 20.7656 27.0938 21.7734 26.6797 22.6094C26.2656 23.4453 25.6602 24.082 24.8633 24.5195C24.0664 24.957 23.1055 25.1758 21.9805 25.1758Z" fill="#FF0000"/>
</svg>
